<svg width="97" height="165" viewBox="0 0 97 165" fill="none" xmlns="http://www.w3.org/2000/svg">
<path d="M-7.87871 156.18L-60.7616 98.7855C-71.0006 87.6726 -70.2912 70.3609 -59.1784 60.1218L-1.78461 7.23843C9.32819 -3.00068 26.6397 -2.29119 36.8787 8.82172L89.7616 66.216C100.001 77.3289 99.2912 94.6368 88.1784 104.88L30.7846 157.763C19.6718 167.998 2.36404 167.293 -7.87871 156.18ZM-31.6241 84.6367L8.6038 128.297C10.7323 130.608 14.332 130.754 16.6434 128.625L60.303 88.397C62.6144 86.2685 62.76 82.6688 60.6316 80.3573L20.4037 36.6973C18.2752 34.3859 14.6755 34.2402 12.3641 36.3687L-31.2955 76.597C-33.6069 78.7292 -33.7526 82.3289 -31.6241 84.6367Z" fill="url(#paint0_linear_91_464)"/>
<defs>
<linearGradient id="paint0_linear_91_464" x1="33.8012" y1="159.887" x2="-19.147" y2="-52.3425" gradientUnits="userSpaceOnUse">
<stop offset="0.00035903" stop-color="#FEEB8A"/>
<stop offset="0.2675" stop-color="#F8C3A8"/>
<stop offset="0.5391" stop-color="#F59BB6"/>
<stop offset="0.6841" stop-color="#F497B5"/>
<stop offset="0.8639" stop-color="#F28BB1"/>
<stop offset="0.9989" stop-color="#EF7FAD"/>
</linearGradient>
</defs>
</svg>
